HIERARCHY
ROOT Root
{
  OFFSET 0.0 0.0 0.0
  CHANNELS 6 Xposition Yposition Zposition Zrotation Yrotation Xrotation
  JOINT Hips
  {
    OFFSET 0.0 100.0 0.0
    CHANNELS 6 Xposition Yposition Zposition Zrotation Yrotation Xrotation
    JOINT Spine1
    {
      OFFSET 5.003913 -0.037094 -0.013727
      CHANNELS 3 Zrotation Yrotation Xrotation
      JOINT Spine2
      {
        OFFSET 7.125363 -1e-06 0.0
        CHANNELS 3 Zrotation Yrotation Xrotation
        JOINT Chest
        {
          OFFSET 7.594027 1e-06 0.0
          CHANNELS 3 Zrotation Yrotation Xrotation
          JOINT Neck1
          {
            OFFSET 26.313086 -0.460272 -0.181672
            CHANNELS 3 Zrotation Yrotation Xrotation
            JOINT Neck2
            {
              OFFSET 8.045911 0.0 0.0
              CHANNELS 3 Zrotation Yrotation Xrotation
              JOINT Head
              {
                OFFSET 6.432774 0.0 0.0
                CHANNELS 3 Zrotation Yrotation Xrotation
                JOINT HeadEnd
                {
                  OFFSET 16.169773 0.06451 0.00362
                  CHANNELS 3 Zrotation Yrotation Xrotation
                }
                JOINT Jaw
                {
                  OFFSET 0.108741 3.12938 0.002639
                  CHANNELS 3 Zrotation Yrotation Xrotation
                }
                JOINT LeftEye
                {
                  OFFSET 4.45173 8.166359 3.206392
                  CHANNELS 3 Zrotation Yrotation Xrotation
                }
                JOINT RightEye
                {
                  OFFSET 4.436895 8.135758 -3.222429
                  CHANNELS 3 Zrotation Yrotation Xrotation
                }
              }
            }
          }
          JOINT LeftShoulder
          {
            OFFSET 23.218927 5.195579 1.621656
            CHANNELS 3 Zrotation Yrotation Xrotation
            JOINT LeftArm
            {
              OFFSET 15.902118 2e-06 -2e-06
              CHANNELS 3 Zrotation Yrotation Xrotation
              JOINT LeftForeArm
              {
                OFFSET 28.739307 0.0 -1e-06
                CHANNELS 3 Zrotation Yrotation Xrotation
                JOINT LeftHand
                {
                  OFFSET 27.093981 -4e-06 0.0
                  CHANNELS 3 Zrotation Yrotation Xrotation
                  JOINT LeftHandThumb1
                  {
                    OFFSET 2.276781 3.380274 0.83384
                    CHANNELS 3 Zrotation Yrotation Xrotation
                    JOINT LeftHandThumb2
                    {
                      OFFSET 4.705309 -1e-06 -1e-06
                      CHANNELS 3 Zrotation Yrotation Xrotation
                      JOINT LeftHandThumb3
                      {
                        OFFSET 2.798515 0.0 3e-06
                        CHANNELS 3 Zrotation Yrotation Xrotation
                        JOINT LeftHandThumbEnd
                        {
                          OFFSET 3.180793 4e-06 -4e-06
                          CHANNELS 3 Zrotation Yrotation Xrotation
                        }
                      }
                    }
                  }
                  JOINT LeftHandIndex1
                  {
                    OFFSET 3.247786 2.352677 0.137192
                    CHANNELS 3 Zrotation Yrotation Xrotation
                    JOINT LeftHandIndex2
                    {
                      OFFSET 6.367095 1e-06 0.0
                      CHANNELS 3 Zrotation Yrotation Xrotation
                      JOINT LeftHandIndex3
                      {
                        OFFSET 3.662364 0.0 0.0
                        CHANNELS 3 Zrotation Yrotation Xrotation
                        JOINT LeftHandIndex4
                        {
                          OFFSET 2.329242 4e-06 -4e-06
                          CHANNELS 3 Zrotation Yrotation Xrotation
                          JOINT LeftHandIndexEnd
                          {
                            OFFSET 2.767823 1e-06 0.0
                            CHANNELS 3 Zrotation Yrotation Xrotation
                          }
                        }
                      }
                    }
                  }
                  JOINT LeftHandMiddle1
                  {
                    OFFSET 3.163612 0.945023 -0.406112
                    CHANNELS 3 Zrotation Yrotation Xrotation
                    JOINT LeftHandMiddle2
                    {
                      OFFSET 6.276789 3e-06 0.0
                      CHANNELS 3 Zrotation Yrotation Xrotation
                      JOINT LeftHandMiddle3
                      {
                        OFFSET 4.35652 -1e-06 4e-06
                        CHANNELS 3 Zrotation Yrotation Xrotation
                        JOINT LeftHandMiddle4
                        {
                          OFFSET 2.996877 0.0 8e-06
                          CHANNELS 3 Zrotation Yrotation Xrotation
                          JOINT LeftHandMiddleEnd
                          {
                            OFFSET 2.323256 3e-06 -4e-06
                            CHANNELS 3 Zrotation Yrotation Xrotation
                          }
                        }
                      }
                    }
                  }
                  JOINT LeftHandRing1
                  {
                    OFFSET 2.882606 -0.309162 0.107445
                    CHANNELS 3 Zrotation Yrotation Xrotation
                    JOINT LeftHandRing2
                    {
                      OFFSET 6.033198 0.0 4e-06
                      CHANNELS 3 Zrotation Yrotation Xrotation
                      JOINT LeftHandRing3
                      {
                        OFFSET 4.350578 3e-06 0.0
                        CHANNELS 3 Zrotation Yrotation Xrotation
                        JOINT LeftHandRing4
                        {
                          OFFSET 2.651321 2e-06 -7e-06
                          CHANNELS 3 Zrotation Yrotation Xrotation
                          JOINT LeftHandRingEnd
                          {
                            OFFSET 1.937663 1e-06 -4e-06
                            CHANNELS 3 Zrotation Yrotation Xrotation
                          }
                        }
                      }
                    }
                  }
                  JOINT LeftHandPinky1
                  {
                    OFFSET 2.865315 -1.525436 0.575687
                    CHANNELS 3 Zrotation Yrotation Xrotation
                    JOINT LeftHandPinky2
                    {
                      OFFSET 5.54936 1e-06 -8e-06
                      CHANNELS 3 Zrotation Yrotation Xrotation
                      JOINT LeftHandPinky3
                      {
                        OFFSET 3.070974 0.0 -4e-06
                        CHANNELS 3 Zrotation Yrotation Xrotation
                        JOINT LeftHandPinky4
                        {
                          OFFSET 1.549672 1e-06 0.0
                          CHANNELS 3 Zrotation Yrotation Xrotation
                          JOINT LeftHandPinkyEnd
                          {
                            OFFSET 1.952123 0.0 0.0
                            CHANNELS 3 Zrotation Yrotation Xrotation
                          }
                        }
                      }
                    }
                  }
                }
              }
            }
          }
          JOINT RightShoulder
          {
            OFFSET 23.161716 5.296122 -1.380114
            CHANNELS 3 Zrotation Yrotation Xrotation
            JOINT RightArm
            {
              OFFSET -16.027195 -2e-06 1.1e-05
              CHANNELS 3 Zrotation Yrotation Xrotation
              JOINT RightForeArm
              {
                OFFSET -28.736639 4e-06 2e-06
                CHANNELS 3 Zrotation Yrotation Xrotation
                JOINT RightHand
                {
                  OFFSET -27.133619 6e-06 0.0
                  CHANNELS 3 Zrotation Yrotation Xrotation
                  JOINT RightHandThumb1
                  {
                    OFFSET -2.274328 -3.351035 -0.83067
                    CHANNELS 3 Zrotation Yrotation Xrotation
                    JOINT RightHandThumb2
                    {
                      OFFSET -4.703594 -3e-06 2e-06
                      CHANNELS 3 Zrotation Yrotation Xrotation
                      JOINT RightHandThumb3
                      {
                        OFFSET -2.794935 -4e-06 -3e-06
                        CHANNELS 3 Zrotation Yrotation Xrotation
                        JOINT RightHandThumbEnd
                        {
                          OFFSET -3.183852 4e-06 1e-06
                          CHANNELS 3 Zrotation Yrotation Xrotation
                        }
                      }
                    }
                  }
                  JOINT RightHandIndex1
                  {
                    OFFSET -3.253496 -2.33755 -0.127667
                    CHANNELS 3 Zrotation Yrotation Xrotation
                    JOINT RightHandIndex2
                    {
                      OFFSET -6.344434 0.0 0.0
                      CHANNELS 3 Zrotation Yrotation Xrotation
                      JOINT RightHandIndex3
                      {
                        OFFSET -3.654871 0.0 -8e-06
                        CHANNELS 3 Zrotation Yrotation Xrotation
                        JOINT RightHandIndex4
                        {
                          OFFSET -2.327586 -1e-06 0.0
                          CHANNELS 3 Zrotation Yrotation Xrotation
                          JOINT RightHandIndexEnd
                          {
                            OFFSET -2.770001 3e-06 8e-06
                            CHANNELS 3 Zrotation Yrotation Xrotation
                          }
                        }
                      }
                    }
                  }
                  JOINT RightHandMiddle1
                  {
                    OFFSET -3.168223 -0.944764 0.411762
                    CHANNELS 3 Zrotation Yrotation Xrotation
                    JOINT RightHandMiddle2
                    {
                      OFFSET -6.266691 -1e-06 -4e-06
                      CHANNELS 3 Zrotation Yrotation Xrotation
                      JOINT RightHandMiddle3
                      {
                        OFFSET -4.348901 0.0 0.0
                        CHANNELS 3 Zrotation Yrotation Xrotation
                        JOINT RightHandMiddle4
                        {
                          OFFSET -3.00024 2e-06 -4e-06
                          CHANNELS 3 Zrotation Yrotation Xrotation
                          JOINT RightHandMiddleEnd
                          {
                            OFFSET -2.321477 -4e-06 -4e-06
                            CHANNELS 3 Zrotation Yrotation Xrotation
                          }
                        }
                      }
                    }
                  }
                  JOINT RightHandRing1
                  {
                    OFFSET -2.885654 0.293261 -0.119232
                    CHANNELS 3 Zrotation Yrotation Xrotation
                    JOINT RightHandRing2
                    {
                      OFFSET -6.032835 -1e-06 -4e-06
                      CHANNELS 3 Zrotation Yrotation Xrotation
                      JOINT RightHandRing3
                      {
                        OFFSET -4.33881 0.0 -4e-06
                        CHANNELS 3 Zrotation Yrotation Xrotation
                        JOINT RightHandRing4
                        {
                          OFFSET -2.654903 -4e-06 -4e-06
                          CHANNELS 3 Zrotation Yrotation Xrotation
                          JOINT RightHandRingEnd
                          {
                            OFFSET -1.935122 0.0 4e-06
                            CHANNELS 3 Zrotation Yrotation Xrotation
                          }
                        }
                      }
                    }
                  }
                  JOINT RightHandPinky1
                  {
                    OFFSET -2.866241 1.503904 -0.60527
                    CHANNELS 3 Zrotation Yrotation Xrotation
                    JOINT RightHandPinky2
                    {
                      OFFSET -5.553177 -2e-06 0.0
                      CHANNELS 3 Zrotation Yrotation Xrotation
                      JOINT RightHandPinky3
                      {
                        OFFSET -3.062664 -1e-06 -4e-06
                        CHANNELS 3 Zrotation Yrotation Xrotation
                        JOINT RightHandPinky4
                        {
                          OFFSET -1.546529 2e-06 4e-06
                          CHANNELS 3 Zrotation Yrotation Xrotation
                          JOINT RightHandPinkyEnd
                          {
                            OFFSET -1.952341 0.0 -4e-06
                            CHANNELS 3 Zrotation Yrotation Xrotation
                          }
                        }
                      }
                    }
                  }
                }
              }
            }
          }
        }
      }
    }
    JOINT LeftLeg
    {
      OFFSET -8.443107 2.567604 10.043214
      CHANNELS 3 Zrotation Yrotation Xrotation
      JOINT LeftShin
      {
        OFFSET 43.229198 1e-06 -1e-06
        CHANNELS 3 Zrotation Yrotation Xrotation
        JOINT LeftFoot
        {
          OFFSET 42.298611 1e-06 1e-06
          CHANNELS 3 Zrotation Yrotation Xrotation
          JOINT LeftToeBase
          {
            OFFSET 14.165858 1e-06 0.0
            CHANNELS 3 Zrotation Yrotation Xrotation
            JOINT LeftToeEnd
            {
              OFFSET 6.7141 -0.234461 0.0
              CHANNELS 3 Zrotation Yrotation Xrotation
            }
          }
        }
      }
    }
    JOINT RightLeg
    {
      OFFSET -8.303923 2.592729 -10.047278
      CHANNELS 3 Zrotation Yrotation Xrotation
      JOINT RightShin
      {
        OFFSET -43.369682 0.0 1e-06
        CHANNELS 3 Zrotation Yrotation Xrotation
        JOINT RightFoot
        {
          OFFSET -42.260784 4e-06 2e-06
          CHANNELS 3 Zrotation Yrotation Xrotation
          JOINT RightToeBase
          {
            OFFSET -14.222245 -2e-06 -1e-06
            CHANNELS 3 Zrotation Yrotation Xrotation
            JOINT RightToeEnd
            {
              OFFSET -6.660062 0.232574 -2e-06
              CHANNELS 3 Zrotation Yrotation Xrotation
            }
          }
        }
      }
    }
  }
}
MOTION
Frames: 4
Frame Time: 0.03333333333333333
0.0 0.0 0.0 0.0 -0.0 0.0 -23.406734 5.504113 -115.448639 51.102772 88.102867 33.596672 0.522353 3.289879 2.780571 -10.742456 1.50179 1.343465 15.145182 4.610621 -2.098044 0.672015 -14.471085 7.188164 -3.058402 -1.609389 5.285994 -48.147007 0.343875 1.294294 8e-06 0.0 -0.0 -0.12366 -0.039401 0.011934 -0.766022 -0.47805 0.217705 -0.485824 0.395919 -0.186137 -63.276649 -63.516048 79.804878 7.648163 -55.457607 29.822588 20.55316 0.547009 0.147448 0.253169 1.365062 -10.416059 17.636631 -26.322737 52.411213 -19.466665 -14.3956 29.410395 2e-06 -8.774824 -3e-06 16.147383 -18.242907 5.796195 -0.609778 -1.795652 -3.889329 -4.80709 -11.04681 -2.93785 3e-06 -20.976021 -1e-06 -5.019973 -25.033562 -4.031884 7e-06 0.0 -0.0 -10.634538 -5.686971 -3.565588 10.573277 -17.922955 -3.113902 2e-06 -13.821211 1e-06 -0.501778 -31.181507 -4.027018 -11.504722 -57.695393 7.066605 -13.982718 -7.150199 -2.875042 13.772731 -8.401491 -3.218244 0.347732 -34.211555 0.771653 -0.96303 -17.73337 2.621019 -0.0 -0.0 0.0 -17.346426 -20.095221 -4.201784 21.757565 -1.638375 3.866427 -0.0 -6.338822 2e-06 -1.69759 -22.591749 -6.194009 0.0 -4e-06 -2e-06 -167.543015 -64.966797 -10.708363 -8.024302 -68.025604 6.125833 19.941702 -0.912007 -0.231819 -3.948428 2.650079 12.332644 22.182121 -20.375893 49.933323 -16.701811 -16.74353 28.47653 -2e-06 -12.690601 -1e-06 15.978328 -16.778934 1.81294 -0.10592 -1.513854 -4.275882 -5.039042 -5.612873 -2.953557 4e-06 -11.020525 -2e-06 -6.1113 -15.895332 -3.840472 0.0 0.0 0.0 -10.283373 -5.680288 -4.34184 11.028296 -11.302406 -2.372632 -1.38427 -14.238579 -6.320122 -0.625439 -26.924189 -3.827602 -3.922733 -48.17131 -4.181084 -13.708528 -7.36347 -3.720941 18.141151 -14.052739 -3.242675 5e-06 -18.787268 -1e-06 -0.429712 -8.456043 2.555504 0.0 0.0 0.0 -15.923539 -20.094482 -5.473587 30.419218 -7.190824 1.735929 3e-06 -8.162925 -0.0 -1.861903 -22.861467 -6.167942 -0.0 -4e-06 -1e-06 179.250854 -18.81926 -24.353842 14.917174 -0.318295 -1.269448 -63.34803 -22.934214 -36.240814 -9.007156 1.500611 1.199519 -0.999999 -1e-06 -0.0 -20.982084 -26.182854 -33.822548 33.932854 4.265449 -4.789981 -37.180714 -34.985901 -22.599129 -8.074344 0.267355 0.844078 -1.000001 -0.0 -0.0 
0.0 0.0 0.0 0.0 -0.0 0.0 -23.383705 5.493164 -115.40892 50.694431 88.088486 33.221718 0.51803 3.314713 2.777203 -10.739394 1.507766 1.326531 15.132135 4.625798 -2.119326 0.648882 -14.60944 7.198535 -3.064208 -1.576483 5.303364 -48.016174 0.334983 1.250422 3e-06 -0.0 -0.0 -0.123308 -0.03453 0.00654 -0.803891 -0.467497 0.210455 -0.510999 0.39412 -0.189291 -63.321217 -63.539059 79.855019 7.693447 -55.467636 29.685888 20.589039 0.504011 0.144267 0.186284 1.363421 -10.07046 17.636625 -26.322731 52.411182 -19.466661 -14.395592 29.410381 1e-06 -8.774819 -2e-06 16.141478 -18.24822 5.816426 -0.609777 -1.795653 -3.889325 -4.807086 -11.04681 -2.937849 4e-06 -20.976015 1e-06 -5.01997 -25.033558 -4.031878 5e-06 -0.0 0.0 -10.634532 -5.686969 -3.565586 10.573271 -17.922949 -3.113899 2e-06 -13.821206 1e-06 -0.501777 -31.181498 -4.027017 -11.521135 -57.749878 7.071191 -13.982709 -7.150197 -2.875041 13.772724 -8.401491 -3.21824 0.347733 -34.211544 0.771656 -0.963029 -17.733366 2.621019 0.0 -1e-06 1e-06 -17.346415 -20.095213 -4.201782 21.757555 -1.638376 3.866426 1e-06 -6.338821 2e-06 -1.697589 -22.591742 -6.194004 1e-06 -4e-06 -2e-06 -167.659439 -64.965889 -10.649574 -7.922034 -67.997459 6.059023 19.934269 -0.959557 -0.217347 -4.016276 2.708938 12.452044 22.182108 -20.375895 49.933319 -16.701817 -16.74353 28.476534 -3e-06 -12.690601 0.0 15.936413 -16.792274 1.830003 -0.105919 -1.513855 -4.275882 -5.039041 -5.612873 -2.953557 4e-06 -11.020525 -2e-06 -6.111298 -15.895336 -3.84047 -0.0 0.0 0.0 -10.283369 -5.680288 -4.341838 11.028296 -11.302407 -2.372634 -1.384268 -14.238581 -6.320121 -0.625437 -26.924189 -3.827601 -3.948946 -48.124683 -4.157425 -13.708525 -7.363473 -3.720939 18.141151 -14.052739 -3.242676 6e-06 -18.78727 -2e-06 -0.429712 -8.456043 2.555504 0.0 0.0 -0.0 -15.923532 -20.094479 -5.473585 30.41921 -7.190827 1.735921 2e-06 -8.162926 -1e-06 -1.861902 -22.861469 -6.167941 -1e-06 -4e-06 -1e-06 178.999527 -18.950331 -24.305285 15.414923 -0.303699 -1.265541 -63.513199 -23.030781 -36.290016 -8.974916 1.491255 1.186109 -0.999999 -1e-06 0.0 -21.047192 -26.215651 -33.779362 34.064594 4.254374 -4.773254 -37.18943 -34.999466 -22.627649 -8.099242 0.255862 0.843995 -1.000002 1e-06 -0.0 
0.0 0.0 0.0 0.0 -0.0 0.0 -23.362854 5.475682 -115.332008 49.480404 88.102463 32.036385 0.539 3.336576 2.77646 -10.727719 1.507808 1.309397 15.121691 4.631591 -2.154053 0.628767 -14.737718 7.206669 -3.070297 -1.499845 5.302998 -47.890102 0.340526 1.22425 5e-06 -0.0 -0.0 -0.121086 -0.031655 0.00457 -0.849873 -0.462048 0.204722 -0.543746 0.393029 -0.186879 -63.320362 -63.564533 79.858543 7.685074 -55.512882 29.638828 20.609648 0.511599 0.149988 0.111347 1.383032 -9.751835 17.636625 -26.322727 52.411194 -19.466665 -14.395598 29.410393 1e-06 -8.774822 -2e-06 16.165304 -18.242264 5.820656 -0.609777 -1.795651 -3.889327 -4.807088 -11.04681 -2.93785 6e-06 -20.976015 -0.0 -5.019969 -25.033558 -4.03188 7e-06 0.0 0.0 -10.634534 -5.686968 -3.565586 10.573275 -17.922951 -3.113903 3e-06 -13.821206 1e-06 -0.501776 -31.181498 -4.027017 -11.52005 -57.799561 7.060437 -13.982714 -7.150196 -2.875039 13.772729 -8.401489 -3.218243 0.347733 -34.211544 0.771654 -0.963028 -17.733366 2.621018 -0.0 -0.0 0.0 -17.346416 -20.095215 -4.201782 21.757557 -1.638374 3.866426 1e-06 -6.338821 1e-06 -1.697589 -22.591742 -6.194004 0.0 -4e-06 -2e-06 -167.748154 -64.965263 -10.597221 -7.762745 -67.977783 5.954672 19.925718 -0.993532 -0.197731 -4.076478 2.759373 12.555429 22.18211 -20.375895 49.933319 -16.701817 -16.74353 28.476532 -2e-06 -12.690601 -0.0 15.909449 -16.811237 1.820177 -0.10592 -1.513854 -4.275882 -5.039041 -5.612876 -2.953556 4e-06 -11.020526 -2e-06 -6.111299 -15.895334 -3.84047 -0.0 0.0 0.0 -10.283371 -5.680288 -4.341837 11.028296 -11.302406 -2.372634 -1.384269 -14.238581 -6.320121 -0.625438 -26.924191 -3.827601 -3.946895 -48.057785 -4.173149 -13.708526 -7.363478 -3.720937 18.14115 -14.052739 -3.242676 6e-06 -18.78727 -2e-06 -0.429712 -8.456043 2.555503 0.0 0.0 0.0 -15.923534 -20.094484 -5.473583 30.41921 -7.190825 1.735923 2e-06 -8.162927 -1e-06 -1.861902 -22.861469 -6.167942 -0.0 -4e-06 -1e-06 178.656723 -19.137711 -24.231537 16.196732 -0.291265 -1.2721 -63.951286 -23.157366 -36.293449 -8.974075 1.480715 1.164191 -1.0 -0.0 -0.0 -21.149767 -26.313505 -33.701797 34.358768 4.258824 -4.768877 -37.320656 -35.007484 -22.642754 -8.078366 0.236653 0.835395 -1.000001 -0.0 0.0 
0.0 0.0 0.0 0.0 -0.0 0.0 -23.369143 5.450046 -115.272141 47.869419 88.141747 30.44091 0.581061 3.331967 2.7823 -10.709926 1.490694 1.290862 15.10586 4.660883 -2.196 0.622946 -14.847204 7.227027 -3.076676 -1.443371 5.274746 -47.775341 0.376909 1.209311 8e-06 0.0 -0.0 -0.11853 -0.035748 0.009297 -0.881226 -0.467732 0.20786 -0.562673 0.389186 -0.180136 -63.326668 -63.587975 79.891098 7.650824 -55.565666 29.618555 20.615164 0.558434 0.147697 0.022532 1.425316 -9.45508 17.636621 -26.322725 52.411182 -19.466656 -14.395594 29.410378 1e-06 -8.774819 -0.0 16.210194 -18.203243 5.802402 -0.609777 -1.795651 -3.889326 -4.807086 -11.046805 -2.93785 4e-06 -20.976006 1e-06 -5.019969 -25.033546 -4.031879 6e-06 0.0 0.0 -10.634531 -5.686965 -3.565588 10.57327 -17.922945 -3.113899 2e-06 -13.821203 2e-06 -0.501776 -31.181488 -4.027013 -11.509549 -57.835617 7.031661 -13.982709 -7.15019 -2.875041 13.772726 -8.401489 -3.218241 0.347731 -34.211536 0.771657 -0.96303 -17.733364 2.62102 -0.0 1e-06 -1e-06 -17.346413 -20.095207 -4.20178 21.757555 -1.638376 3.866426 1e-06 -6.338819 2e-06 -1.69759 -22.591736 -6.194002 0.0 -4e-06 -2e-06 -167.794891 -64.963669 -10.590217 -7.659492 -67.956635 5.883089 19.931286 -1.036191 -0.185657 -4.144898 2.811615 12.648438 22.18211 -20.375893 49.933319 -16.701811 -16.743528 28.476528 -2e-06 -12.690599 -1e-06 15.920236 -16.810452 1.793552 -0.10592 -1.513857 -4.275881 -5.039041 -5.612872 -2.953556 4e-06 -11.020523 -1e-06 -6.111298 -15.895332 -3.840469 -0.0 0.0 -1e-06 -10.283369 -5.680288 -4.341837 11.028293 -11.302404 -2.372633 -1.384269 -14.23858 -6.32012 -0.62544 -26.924187 -3.8276 -3.949731 -48.008778 -4.179225 -13.708525 -7.363475 -3.720938 18.141146 -14.052738 -3.242674 5e-06 -18.78727 -2e-06 -0.429712 -8.456043 2.555503 0.0 0.0 0.0 -15.923536 -20.094482 -5.473582 30.41921 -7.190822 1.735926 2e-06 -8.162926 -1e-06 -1.861903 -22.861467 -6.167942 -0.0 -4e-06 -1e-06 178.479263 -19.25787 -24.223558 16.690372 -0.29523 -1.295433 -64.30056 -23.284843 -36.278412 -8.996819 1.474689 1.150292 -0.999999 -0.0 0.0 -21.209784 -26.400089 -33.637253 34.618179 4.272506 -4.784194 -37.479702 -35.013939 -22.610714 -8.014101 0.214966 0.831344 -1.000003 -0.0 -0.0 
